<svg width="240" height="240" viewBox="0 0 240 240" fill="none" xmlns="http://www.w3.org/2000/svg">
<g clip-path="url(#clip0_1_88)">
<path d="M182.208 37.056C183.48 37.056 184.512 36.0245 184.512 34.752C184.512 33.4795 183.48 32.448 182.208 32.448C180.936 32.448 179.904 33.4795 179.904 34.752C179.904 36.0245 180.936 37.056 182.208 37.056Z" fill="#F1BC19"/>
<path d="M120 205.248C167.081 205.248 205.248 167.081 205.248 120C205.248 72.9188 167.081 34.752 120 34.752C72.9188 34.752 34.752 72.9188 34.752 120C34.752 167.081 72.9188 205.248 120 205.248Z" fill="#E4E4F9"/>
<path d="M196.032 48.576C201.122 48.576 205.248 44.4499 205.248 39.36C205.248 34.2701 201.122 30.144 196.032 30.144C190.942 30.144 186.816 34.2701 186.816 39.36C186.816 44.4499 190.942 48.576 196.032 48.576Z" fill="#F1BC19"/>
<path d="M205.248 64.704C207.793 64.704 209.856 62.6409 209.856 60.096C209.856 57.5511 207.793 55.488 205.248 55.488C202.703 55.488 200.64 57.5511 200.64 60.096C200.64 62.6409 202.703 64.704 205.248 64.704Z" fill="#8889B9"/>
<path d="M191.424 184.512C193.969 184.512 196.032 182.449 196.032 179.904C196.032 177.359 193.969 175.296 191.424 175.296C188.879 175.296 186.816 177.359 186.816 179.904C186.816 182.449 188.879 184.512 191.424 184.512Z" fill="#FBCD59"/>
<path d="M39.36 159.168C44.4499 159.168 48.576 155.042 48.576 149.952C48.576 144.862 44.4499 140.736 39.36 140.736C34.2701 140.736 30.144 144.862 30.144 149.952C30.144 155.042 34.2701 159.168 39.36 159.168Z" fill="#FBCD59"/>
<path d="M62.4 209.856C64.9449 209.856 67.008 207.793 67.008 205.248C67.008 202.703 64.9449 200.64 62.4 200.64C59.8551 200.64 57.792 202.703 57.792 205.248C57.792 207.793 59.8551 209.856 62.4 209.856Z" fill="#8889B9"/>
<path d="M47.136 136.128C50.3172 136.128 52.896 133.549 52.896 130.368C52.896 127.187 50.3172 124.608 47.136 124.608C43.9548 124.608 41.376 127.187 41.376 130.368C41.376 133.549 43.9548 136.128 47.136 136.128Z" fill="white"/>
<path d="M183.36 78.528C185.269 78.528 186.816 76.9807 186.816 75.072C186.816 73.1633 185.269 71.616 183.36 71.616C181.451 71.616 179.904 73.1633 179.904 75.072C179.904 76.9807 181.451 78.528 183.36 78.528Z" fill="white"/>
<path d="M158.521 172.992H86.0874C76.823 172.992 69.312 165.481 69.312 156.217V83.7834C69.312 74.519 76.823 67.008 86.0874 67.008H158.521C167.785 67.008 175.296 74.519 175.296 83.7834V156.217C175.296 165.481 167.785 172.992 158.521 172.992Z" fill="#FDFCEF"/>
<path d="M160.825 67.9296C168.296 67.9296 174.374 74.0075 174.374 81.4794V158.521C174.374 165.992 168.296 172.07 160.825 172.07H83.7834C76.3115 172.07 70.2336 165.992 70.2336 158.521V81.4794C70.2336 74.0075 76.3115 67.9296 83.7834 67.9296H160.825ZM160.825 64.704H83.7834C74.519 64.704 67.008 72.215 67.008 81.4794V158.521C67.008 167.785 74.519 175.296 83.7834 175.296H160.825C170.089 175.296 177.6 167.785 177.6 158.521V81.4794C177.6 72.215 170.089 64.704 160.825 64.704Z" fill="#472B29"/>
<path d="M77.376 97.3448C76.7401 97.3448 76.224 96.8287 76.224 96.1928V86.2095C76.224 79.4335 81.7375 73.92 88.5112 73.92H132.672C133.308 73.92 133.824 74.4361 133.824 75.072C133.824 75.7079 133.308 76.224 132.672 76.224H88.5112C83.0047 76.224 78.528 80.703 78.528 86.2072V96.1905C78.528 96.8287 78.0119 97.3448 77.376 97.3448Z" fill="#472B29"/>
<path d="M77.376 132.084C76.7401 132.084 76.224 131.568 76.224 130.932V102.72C76.224 102.084 76.7401 101.568 77.376 101.568C78.0119 101.568 78.528 102.084 78.528 102.72V130.932C78.528 131.568 78.0119 132.084 77.376 132.084Z" fill="#472B29"/>
<path d="M95.9992 166.08H88.5112C81.7375 166.08 76.224 160.567 76.224 153.793V139.413C76.224 138.778 76.7401 138.261 77.376 138.261C78.0119 138.261 78.528 138.778 78.528 139.413V153.793C78.528 159.297 83.0047 163.776 88.5112 163.776H95.9992C96.6351 163.776 97.1512 164.292 97.1512 164.928C97.1512 165.564 96.6351 166.08 95.9992 166.08Z" fill="#472B29"/>
<path d="M156.097 166.08H103.681C103.045 166.08 102.529 165.564 102.529 164.928C102.529 164.292 103.045 163.776 103.681 163.776H156.097C161.603 163.776 166.08 159.297 166.08 153.793V142.082C166.08 141.446 166.596 140.93 167.232 140.93C167.868 140.93 168.384 141.446 168.384 142.082V153.793C168.384 160.567 162.871 166.08 156.097 166.08Z" fill="#472B29"/>
<path d="M167.232 134.209C166.596 134.209 166.08 133.693 166.08 133.057V86.2072C166.08 80.703 161.603 76.224 156.097 76.224H154.369C153.733 76.224 153.217 75.7079 153.217 75.072C153.217 74.4361 153.733 73.92 154.369 73.92H156.097C162.871 73.92 168.384 79.4335 168.384 86.2072V133.054C168.384 133.693 167.868 134.209 167.232 134.209Z" fill="#472B29"/>
<path d="M148.8 76.224H141.312C140.676 76.224 140.16 75.7079 140.16 75.072C140.16 74.4361 140.676 73.92 141.312 73.92H148.8C149.436 73.92 149.952 74.4361 149.952 75.072C149.952 75.7079 149.436 76.224 148.8 76.224Z" fill="#472B29"/>
<path d="M138.872 154.56H105.736C102.16 154.56 99.264 151.664 99.264 148.088V91.9119C99.264 88.3361 102.16 85.44 105.736 85.44H138.874C142.448 85.44 145.344 88.3361 145.344 91.9119V148.09C145.344 151.664 142.448 154.56 138.872 154.56Z" fill="#1C1C1C"/>
<path d="M137.819 106.176H106.789C105.178 106.176 103.872 104.87 103.872 103.259V92.9649C103.872 91.3544 105.178 90.048 106.789 90.048H137.819C139.43 90.048 140.736 91.3544 140.736 92.9649V103.259C140.736 104.87 139.43 106.176 137.819 106.176Z" fill="#7C7C7C"/>
<path d="M122.304 147.648H108.48C105.936 147.648 103.872 145.586 103.872 143.04C103.872 140.496 105.934 138.432 108.48 138.432H122.304C124.848 138.432 126.912 140.494 126.912 143.04C126.912 145.586 124.85 147.648 122.304 147.648Z" fill="#D3D3D1"/>
<path d="M108.48 133.824C111.025 133.824 113.088 131.761 113.088 129.216C113.088 126.671 111.025 124.608 108.48 124.608C105.935 124.608 103.872 126.671 103.872 129.216C103.872 131.761 105.935 133.824 108.48 133.824Z" fill="#D3D3D1"/>
<path d="M122.304 133.824C124.849 133.824 126.912 131.761 126.912 129.216C126.912 126.671 124.849 124.608 122.304 124.608C119.759 124.608 117.696 126.671 117.696 129.216C117.696 131.761 119.759 133.824 122.304 133.824Z" fill="#D3D3D1"/>
<path d="M136.128 133.824C138.673 133.824 140.736 131.761 140.736 129.216C140.736 126.671 138.673 124.608 136.128 124.608C133.583 124.608 131.52 126.671 131.52 129.216C131.52 131.761 133.583 133.824 136.128 133.824Z" fill="#FE9200"/>
<path d="M136.128 147.648C138.673 147.648 140.736 145.585 140.736 143.04C140.736 140.495 138.673 138.432 136.128 138.432C133.583 138.432 131.52 140.495 131.52 143.04C131.52 145.585 133.583 147.648 136.128 147.648Z" fill="#FE9200"/>
<path d="M108.48 120C111.025 120 113.088 117.937 113.088 115.392C113.088 112.847 111.025 110.784 108.48 110.784C105.935 110.784 103.872 112.847 103.872 115.392C103.872 117.937 105.935 120 108.48 120Z" fill="#D3D3D1"/>
<path d="M122.304 120C124.849 120 126.912 117.937 126.912 115.392C126.912 112.847 124.849 110.784 122.304 110.784C119.759 110.784 117.696 112.847 117.696 115.392C117.696 117.937 119.759 120 122.304 120Z" fill="#D3D3D1"/>
<path d="M136.128 120C138.673 120 140.736 117.937 140.736 115.392C140.736 112.847 138.673 110.784 136.128 110.784C133.583 110.784 131.52 112.847 131.52 115.392C131.52 117.937 133.583 120 136.128 120Z" fill="#FE9200"/>
</g>
<defs>
<clipPath id="clip0_1_88">
<rect width="180" height="180" fill="white" transform="translate(30 30)"/>
</clipPath>
</defs>
</svg>
